<svg id="Слой_1" data-name="Слой 1" xmlns="http://www.w3.org/2000/svg" viewBox="0 0 630 545.68"><defs><style>.cls-1{fill:#fff;}</style></defs><g id="SvgjsG3068"><path class="cls-1" d="M614.65,549.09h17.87L394.88,137.5l-.09.14,0-.09L243.4,399.7H222.58L384.34,119.52l-8.93-15.46L204.72,399.7H183.9L365,86l-8.92-15.46L166,399.7H145.23L345.66,52.52l-8.92-15.46L127.37,399.7H106.55L326.32,19,317.39,3.57,79.76,415.16h.16l-.06.1h302.7l10.41,18H69.44l-8.92,15.46H401.91l10.4,18H50.12L41.2,482.23l380.05,0,10.41,18H30.78l-8.92,15.46H440.59l10.39,18H11.45L2.52,549.24H477.79l-.08-.14h.1L326.46,287l10.4-18L498.62,549.1h17.86L345.8,253.45l10.4-18L537.3,549.11h17.86L365.14,220l10.41-18L576,549.11h17.85L384.48,186.46l10.4-18Zm-240.9-149.3H261.2l56.27-97.48Z" transform="translate(-2.52 -3.57)"/></g><text x="-2.52" y="-3.57"/></svg>